<mxfile host="app.diagrams.net" modified="2021-07-17T03:49:23.417Z" agent="5.0 (X11; Linux x86_64) AppleWebKit/537.36 (KHTML, like Gecko) Chrome/91.0.4472.114 Safari/537.36" etag="szipSkCHp_VUsUTFP8It" version="14.8.6" type="github">
  <diagram id="BiaBzupZuHQj9mEWrDAO" name="Page-1">
    <mxGraphModel dx="1268" dy="682" grid="1" gridSize="10" guides="1" tooltips="1" connect="1" arrows="1" fold="1" page="1" pageScale="1" pageWidth="100" pageHeight="100" math="0" shadow="0">
      <root>
        <mxCell id="0" />
        <mxCell id="1" parent="0" />
        <mxCell id="Wk8CPC1R70xKdI87IpBm-1" value="Frontend Servers" style="rounded=1;whiteSpace=wrap;html=1;" vertex="1" parent="1">
          <mxGeometry x="40" y="60" width="120" height="60" as="geometry" />
        </mxCell>
        <mxCell id="Wk8CPC1R70xKdI87IpBm-2" value="Metadata Service&lt;br&gt;(Facade Pattern)" style="rounded=1;whiteSpace=wrap;html=1;" vertex="1" parent="1">
          <mxGeometry x="40" y="-50" width="120" height="60" as="geometry" />
        </mxCell>
        <mxCell id="Wk8CPC1R70xKdI87IpBm-4" value="Load Balancer" style="rhombus;whiteSpace=wrap;html=1;" vertex="1" parent="1">
          <mxGeometry x="-180" y="30" width="80" height="80" as="geometry" />
        </mxCell>
        <mxCell id="Wk8CPC1R70xKdI87IpBm-5" value="Load Balancer" style="rhombus;whiteSpace=wrap;html=1;" vertex="1" parent="1">
          <mxGeometry x="-170" y="40" width="80" height="80" as="geometry" />
        </mxCell>
        <mxCell id="Wk8CPC1R70xKdI87IpBm-6" value="Load Balancer" style="rhombus;whiteSpace=wrap;html=1;" vertex="1" parent="1">
          <mxGeometry x="-160" y="50" width="80" height="80" as="geometry" />
        </mxCell>
        <mxCell id="Wk8CPC1R70xKdI87IpBm-8" value="Viirtual IP" style="rounded=0;whiteSpace=wrap;html=1;" vertex="1" parent="1">
          <mxGeometry x="-330" y="50" width="120" height="60" as="geometry" />
        </mxCell>
        <mxCell id="Wk8CPC1R70xKdI87IpBm-9" value="Actor" style="shape=umlActor;verticalLabelPosition=bottom;verticalAlign=top;html=1;outlineConnect=0;" vertex="1" parent="1">
          <mxGeometry x="-390" y="50" width="30" height="60" as="geometry" />
        </mxCell>
        <mxCell id="Wk8CPC1R70xKdI87IpBm-10" value="" style="endArrow=classic;startArrow=classic;html=1;entryX=0;entryY=0.5;entryDx=0;entryDy=0;" edge="1" parent="1">
          <mxGeometry width="50" height="50" relative="1" as="geometry">
            <mxPoint x="-80" y="90" as="sourcePoint" />
            <mxPoint x="40" y="90" as="targetPoint" />
          </mxGeometry>
        </mxCell>
        <mxCell id="Wk8CPC1R70xKdI87IpBm-11" value="Backend Servers" style="rounded=0;whiteSpace=wrap;html=1;" vertex="1" parent="1">
          <mxGeometry x="220" y="20" width="280" height="160" as="geometry" />
        </mxCell>
        <mxCell id="Wk8CPC1R70xKdI87IpBm-12" value="" style="rounded=1;whiteSpace=wrap;html=1;" vertex="1" parent="1">
          <mxGeometry x="230" y="30" width="120" height="60" as="geometry" />
        </mxCell>
        <mxCell id="Wk8CPC1R70xKdI87IpBm-13" value="" style="rounded=1;whiteSpace=wrap;html=1;" vertex="1" parent="1">
          <mxGeometry x="370" y="30" width="120" height="60" as="geometry" />
        </mxCell>
        <mxCell id="Wk8CPC1R70xKdI87IpBm-14" value="" style="rounded=1;whiteSpace=wrap;html=1;" vertex="1" parent="1">
          <mxGeometry x="230" y="110" width="120" height="60" as="geometry" />
        </mxCell>
        <mxCell id="Wk8CPC1R70xKdI87IpBm-15" value="" style="rounded=1;whiteSpace=wrap;html=1;" vertex="1" parent="1">
          <mxGeometry x="370" y="110" width="120" height="60" as="geometry" />
        </mxCell>
        <mxCell id="Wk8CPC1R70xKdI87IpBm-16" value="" style="endArrow=classic;startArrow=classic;html=1;exitX=1;exitY=0.25;exitDx=0;exitDy=0;entryX=0;entryY=0.5;entryDx=0;entryDy=0;" edge="1" parent="1" source="Wk8CPC1R70xKdI87IpBm-25" target="Wk8CPC1R70xKdI87IpBm-11">
          <mxGeometry width="50" height="50" relative="1" as="geometry">
            <mxPoint x="30" y="40" as="sourcePoint" />
            <mxPoint x="80" y="-10" as="targetPoint" />
          </mxGeometry>
        </mxCell>
        <mxCell id="Wk8CPC1R70xKdI87IpBm-17" value="" style="endArrow=classic;startArrow=classic;html=1;exitX=0.5;exitY=0;exitDx=0;exitDy=0;entryX=0.358;entryY=1.017;entryDx=0;entryDy=0;entryPerimeter=0;" edge="1" parent="1" source="Wk8CPC1R70xKdI87IpBm-1" target="Wk8CPC1R70xKdI87IpBm-22">
          <mxGeometry width="50" height="50" relative="1" as="geometry">
            <mxPoint x="40" y="50" as="sourcePoint" />
            <mxPoint x="90" as="targetPoint" />
          </mxGeometry>
        </mxCell>
        <mxCell id="Wk8CPC1R70xKdI87IpBm-18" value="" style="endArrow=classic;startArrow=classic;html=1;exitX=0.5;exitY=0;exitDx=0;exitDy=0;" edge="1" parent="1" source="Wk8CPC1R70xKdI87IpBm-2">
          <mxGeometry width="50" height="50" relative="1" as="geometry">
            <mxPoint x="70" y="-60" as="sourcePoint" />
            <mxPoint x="100" y="-110" as="targetPoint" />
          </mxGeometry>
        </mxCell>
        <mxCell id="Wk8CPC1R70xKdI87IpBm-19" value="" style="endArrow=classic;startArrow=classic;html=1;exitX=1;exitY=0.5;exitDx=0;exitDy=0;" edge="1" parent="1" source="Wk8CPC1R70xKdI87IpBm-8">
          <mxGeometry width="50" height="50" relative="1" as="geometry">
            <mxPoint x="30" y="150" as="sourcePoint" />
            <mxPoint x="-170" y="80" as="targetPoint" />
          </mxGeometry>
        </mxCell>
        <mxCell id="Wk8CPC1R70xKdI87IpBm-20" value="" style="endArrow=classic;startArrow=classic;html=1;entryX=0;entryY=0.5;entryDx=0;entryDy=0;" edge="1" parent="1" target="Wk8CPC1R70xKdI87IpBm-8">
          <mxGeometry width="50" height="50" relative="1" as="geometry">
            <mxPoint x="-370" y="80" as="sourcePoint" />
            <mxPoint x="80" y="100" as="targetPoint" />
          </mxGeometry>
        </mxCell>
        <mxCell id="Wk8CPC1R70xKdI87IpBm-21" value="Metadata Service&lt;br&gt;(Facade Pattern)" style="rounded=1;whiteSpace=wrap;html=1;" vertex="1" parent="1">
          <mxGeometry x="50" y="-40" width="120" height="60" as="geometry" />
        </mxCell>
        <mxCell id="Wk8CPC1R70xKdI87IpBm-22" value="Metadata Service&lt;br&gt;(Facade Pattern)" style="rounded=1;whiteSpace=wrap;html=1;" vertex="1" parent="1">
          <mxGeometry x="60" y="-30" width="120" height="60" as="geometry" />
        </mxCell>
        <mxCell id="Wk8CPC1R70xKdI87IpBm-23" value="Metadata DB" style="shape=datastore;whiteSpace=wrap;html=1;" vertex="1" parent="1">
          <mxGeometry x="70" y="-170" width="60" height="60" as="geometry" />
        </mxCell>
        <mxCell id="Wk8CPC1R70xKdI87IpBm-24" value="Frontend Servers" style="rounded=1;whiteSpace=wrap;html=1;" vertex="1" parent="1">
          <mxGeometry x="50" y="70" width="120" height="60" as="geometry" />
        </mxCell>
        <mxCell id="Wk8CPC1R70xKdI87IpBm-25" value="Frontend Servers" style="rounded=1;whiteSpace=wrap;html=1;" vertex="1" parent="1">
          <mxGeometry x="60" y="80" width="120" height="60" as="geometry" />
        </mxCell>
        <mxCell id="Wk8CPC1R70xKdI87IpBm-26" value="Stores data of Queue and IP" style="text;html=1;strokeColor=none;fillColor=none;align=center;verticalAlign=middle;whiteSpace=wrap;rounded=0;" vertex="1" parent="1">
          <mxGeometry x="130" y="-150" width="160" height="20" as="geometry" />
        </mxCell>
      </root>
    </mxGraphModel>
  </diagram>
</mxfile>
